<?xml version="1.0" encoding="UTF-8"?>
<svg width="491px" height="90px" viewBox="0 0 491 90" version="1.1" xmlns="http://www.w3.org/2000/svg" xmlns:xlink="http://www.w3.org/1999/xlink">
    <title>bit_background</title>
    <defs>
        <linearGradient x1="50%" y1="0%" x2="50%" y2="100%" id="linearGradient-1">
            <stop stop-color="#2B5586" offset="0%"></stop>
            <stop stop-color="#3EBEC0" offset="100%"></stop>
        </linearGradient>
        <path d="M45.5839857,42.292257 L52.4848607,38.4463237 C52.6348191,38.3627487 52.7221524,38.1994987 52.7084857,38.028607 C52.6947774,37.8576029 52.5825691,37.7103529 52.4212357,37.6516695 L44.9961524,34.949832 C44.8671524,34.9026487 44.7195274,34.9521654 44.6466941,35.0760362 C44.5992357,35.1568487 44.5976941,35.2566945 44.6346941,35.3427112 L45.7043607,37.8300487 C45.7815274,38.0095154 45.9547357,38.1290487 46.1501107,38.1376195 L49.2007774,38.2716862 C49.2195274,38.2725029 49.2347774,38.2871445 49.2362774,38.3059112 C49.2377774,38.3246195 49.2250691,38.3414904 49.2066107,38.3453404 L46.2161107,38.961832 C46.0245691,39.0012612 45.8725691,39.1467737 45.8249024,39.3362195 L45.1645691,41.9616945 C45.1417357,42.0525362 45.1591941,42.1509195 45.2188191,42.223107 C45.3104441,42.333857 45.4640691,42.3592904 45.5839857,42.292257 L45.5839857,42.292257 Z" id="path-2"></path>
    </defs>
    <g id="bit_background" stroke="none" stroke-width="1" fill="none" fill-rule="evenodd">
        <g id="bitLogoSquare" transform="translate(216.000000, 15.000000)">
            <rect id="background" fill="url(#linearGradient-1)" x="0" y="0" width="60" height="60"></rect>
            <path d="M12.3302524,17.6645154 C13.2501816,17.6645154 13.9958524,18.4093612 13.9958524,19.3281654 L13.9958524,24.1650779 L18.8691732,24.1650779 C23.3930649,24.1650779 27.0735357,27.8412612 27.0735357,32.3598862 C27.0735357,36.8786737 23.3930649,40.5548529 18.8691732,40.5548529 C14.3451732,40.5548529 10.6647066,36.8786737 10.6647066,32.3600487 L10.6647066,27.4924029 L8.96823158,27.4924029 C8.04830241,27.4924029 7.30263158,26.7475987 7.30263158,25.8287404 C7.30263158,24.9099404 8.04830241,24.1650779 8.96823158,24.1650779 L10.6647066,24.1650779 L10.6647066,19.3281654 C10.6647066,18.4093612 11.4103774,17.6645154 12.3302524,17.6645154 Z M18.8691732,27.4924029 L13.9958524,27.4924029 L13.9958524,32.3600487 C13.9958524,35.043982 16.1820024,37.2274779 18.8690649,37.2274779 C21.5562399,37.2274779 23.7423316,35.043982 23.7423316,32.3600487 C23.7423316,29.6759487 21.5562399,27.4924029 18.8691732,27.4924029 Z M29.5745524,40.5953404 C28.6599774,40.5953404 27.9186482,39.8486945 27.9186482,38.9276362 L27.9186482,25.8339779 C27.9186482,24.9129195 28.6599774,24.1662737 29.5745524,24.1662737 C30.4891232,24.1662737 31.2304524,24.9129195 31.2304524,25.8339779 L31.2304524,38.9276362 C31.2304524,39.8486945 30.4891232,40.5953404 29.5745524,40.5953404 L29.5745524,40.5953404 Z M42.4936941,37.2258195 C39.8191441,37.1580445 37.7241774,35.0207237 37.7241774,32.3600112 L37.7241774,27.4924195 L41.9191107,27.4924195 C42.8435691,27.4924195 43.5929857,26.7476154 43.5929857,25.828757 C43.5929857,24.9099029 42.8435691,24.1650404 41.9191107,24.1650404 L37.7241774,24.1650404 L37.7241774,19.3281779 C37.7241774,18.4093237 36.9747982,17.6644737 36.0502982,17.6644737 C35.1258024,17.6644737 34.3763691,18.4093237 34.3763691,19.3281779 L34.3763691,24.1650404 L33.6634482,24.1650404 C32.7390024,24.1650404 31.9896232,24.9099029 31.9896232,25.828757 C31.9896232,26.7476154 32.7390024,27.4924195 33.6634482,27.4924195 L34.3763691,27.4924195 L34.3763691,32.3600112 C34.3763691,34.5119112 35.2092566,36.5447904 36.7215982,38.0843529 C38.2310066,39.6209487 40.2506149,40.4974112 42.4081941,40.5520612 C42.4228607,40.552657 42.4372357,40.552657 42.4518191,40.552657 C43.3564024,40.552657 44.1010691,39.8354987 44.1243191,38.9314945 C44.1477774,38.0128529 43.4178191,37.2493112 42.4936941,37.2258195 L42.4936941,37.2258195 Z" id="bit_logo" fill="#FFFFFF"></path>
            <path d="M31.4788399,21.5656904 C31.4788399,22.591582 30.6447566,23.4232487 29.6159482,23.4232487 C28.5870857,23.4232487 27.7530566,22.591582 27.7530566,21.5656904 C27.7530566,20.5397987 28.5870857,19.708132 29.6159482,19.708132 C30.6447566,19.708132 31.4788399,20.5397987 31.4788399,21.5656904 L31.4788399,21.5656904 Z" id="circle" fill="#D32733"></path>
            <mask id="mask-3" fill="white">
                <use xlink:href="#path-2"></use>
            </mask>
            <use id="plane" fill="#D32733" xlink:href="#path-2"></use>
        </g>
    </g>
</svg>