<?xml version="1.0" encoding="UTF-8"?>
<svg width="491px" height="90px" viewBox="0 0 491 90" version="1.1" xmlns="http://www.w3.org/2000/svg" xmlns:xlink="http://www.w3.org/1999/xlink">
    <title>bit_background</title>
    <defs>
        <linearGradient x1="50%" y1="0%" x2="50%" y2="100%" id="linearGradient-1">
            <stop stop-color="#2B5586" offset="0%"></stop>
            <stop stop-color="#3EBEC0" offset="100%"></stop>
        </linearGradient>
        <path d="M54.7007829,50.7507084 L62.9818329,46.1355884 C63.1617829,46.0352984 63.2665829,45.8393984 63.2501829,45.6343284 C63.2337329,45.4291234 63.0990829,45.2524234 62.9054829,45.1820034 L53.9953829,41.9397984 C53.8405829,41.8831784 53.6634329,41.9425984 53.5760329,42.0912434 C53.5190829,42.1882184 53.5172329,42.3080334 53.5616329,42.4112534 L54.8452329,45.3960584 C54.9378329,45.6114184 55.1456829,45.7548584 55.3801329,45.7651434 L59.0409329,45.9260234 C59.0634329,45.9270034 59.0817329,45.9445734 59.0835329,45.9670934 C59.0853329,45.9895434 59.0700829,46.0097884 59.0479329,46.0144084 L55.4593329,46.7541984 C55.2294829,46.8015134 55.0470829,46.9761284 54.9898829,47.2034634 L54.1974829,50.3540334 C54.1700829,50.4630434 54.1910329,50.5811034 54.2625829,50.6677284 C54.3725329,50.8006284 54.5568829,50.8311484 54.7007829,50.7507084 L54.7007829,50.7507084 Z" id="path-2"></path>
    </defs>
    <g id="bit_background" stroke="none" stroke-width="1" fill="none" fill-rule="evenodd">
        <g id="Group" transform="translate(210.000000, 9.000000)">
            <path d="M8.28947368,0 L63.7105263,0 C68.2886762,0 72,3.71132378 72,8.28947368 L72,63.7105263 C72,68.2886762 68.2886762,72 63.7105263,72 L8.28947368,72 C3.71132378,72 0,68.2886762 0,63.7105263 L0,8.28947368 C0,3.71132378 3.71132378,0 8.28947368,0 Z" id="background" fill="url(#linearGradient-1)"></path>
            <path d="M14.7963029,21.1974184 C15.9002179,21.1974184 16.7950229,22.0912334 16.7950229,23.1937984 L16.7950229,28.9980934 L22.6430079,28.9980934 C28.0716779,28.9980934 32.4882429,33.4095134 32.4882429,38.8318634 C32.4882429,44.2544084 28.0716779,48.6658234 22.6430079,48.6658234 C17.2142079,48.6658234 12.7976479,44.2544084 12.7976479,38.8320584 L12.7976479,32.9908834 L10.7618779,32.9908834 C9.65796289,32.9908834 8.76315789,32.0971184 8.76315789,30.9944884 C8.76315789,29.8919284 9.65796289,28.9980934 10.7618779,28.9980934 L12.7976479,28.9980934 L12.7976479,23.1937984 C12.7976479,22.0912334 13.6924529,21.1974184 14.7963029,21.1974184 Z M22.6430079,32.9908834 L16.7950229,32.9908834 L16.7950229,38.8320584 C16.7950229,42.0527784 19.4184029,44.6729734 22.6428779,44.6729734 C25.8674879,44.6729734 28.4907979,42.0527784 28.4907979,38.8320584 C28.4907979,35.6111384 25.8674879,32.9908834 22.6430079,32.9908834 Z M35.4894629,48.7144084 C34.3919729,48.7144084 33.5023779,47.8184334 33.5023779,46.7131634 L33.5023779,31.0007734 C33.5023779,29.8955034 34.3919729,28.9995284 35.4894629,28.9995284 C36.5869479,28.9995284 37.4765429,29.8955034 37.4765429,31.0007734 L37.4765429,46.7131634 C37.4765429,47.8184334 36.5869479,48.7144084 35.4894629,48.7144084 L35.4894629,48.7144084 Z M50.9924329,44.6709834 C47.7829729,44.5896534 45.2690129,42.0248684 45.2690129,38.8320134 L45.2690129,32.9909034 L50.3029329,32.9909034 C51.4122829,32.9909034 52.3115829,32.0971384 52.3115829,30.9945084 C52.3115829,29.8918834 51.4122829,28.9980484 50.3029329,28.9980484 L45.2690129,28.9980484 L45.2690129,23.1938134 C45.2690129,22.0911884 44.3697579,21.1973684 43.2603579,21.1973684 C42.1509629,21.1973684 41.2516429,22.0911884 41.2516429,23.1938134 L41.2516429,28.9980484 L40.3961379,28.9980484 C39.2868029,28.9980484 38.3875479,29.8918834 38.3875479,30.9945084 C38.3875479,32.0971384 39.2868029,32.9909034 40.3961379,32.9909034 L41.2516429,32.9909034 L41.2516429,38.8320134 C41.2516429,41.4142934 42.2511079,43.8537484 44.0659179,45.7012234 C45.8772079,47.5451384 48.3007379,48.5968934 50.8898329,48.6624734 C50.9074329,48.6631884 50.9246829,48.6631884 50.9421829,48.6631884 C52.0276829,48.6631884 52.9212829,47.8025984 52.9491829,46.7177934 C52.9773329,45.6154234 52.1013829,44.6991734 50.9924329,44.6709834 L50.9924329,44.6709834 Z" id="bit_logo" fill="#FFFFFF"></path>
            <path d="M37.7746079,25.8788284 C37.7746079,27.1098984 36.7737079,28.1078984 35.5391379,28.1078984 C34.3045029,28.1078984 33.3036679,27.1098984 33.3036679,25.8788284 C33.3036679,24.6477584 34.3045029,23.6497584 35.5391379,23.6497584 C36.7737079,23.6497584 37.7746079,24.6477584 37.7746079,25.8788284 L37.7746079,25.8788284 Z" id="circle" fill="#D32733"></path>
            <mask id="mask-3" fill="white">
                <use xlink:href="#path-2"></use>
            </mask>
            <use id="plane" fill="#D32733" xlink:href="#path-2"></use>
        </g>
    </g>
</svg>